<?xml version="1.0" standalone="no"?>
<!DOCTYPE svg PUBLIC "-//W3C//DTD SVG 20010904//EN"
 "http://www.w3.org/TR/2001/REC-SVG-20010904/DTD/svg10.dtd">
<svg version="1.0" xmlns="http://www.w3.org/2000/svg"
 width="150.000000pt" height="150.000000pt" viewBox="0 0 150.000000 150.000000"
 preserveAspectRatio="xMidYMid meet">

<g transform="translate(0.000000,150.000000) scale(0.100000,-0.100000)"
fill="#000000" stroke="none">
<path d="M0 750 l0 -750 750 0 750 0 0 750 0 750 -750 0 -750 0 0 -750z m320
120 c8 -5 11 -10 5 -10 -5 0 -17 5 -25 10 -8 5 -10 10 -5 10 6 0 17 -5 25 -10z
m686 -8 c1 -7 0 -8 -3 -2 -3 8 -9 7 -19 -1 -8 -6 -14 -7 -14 -2 0 24 31 28 36
5z m-662 -31 c-11 -11 -18 -12 -21 -5 -2 7 -12 10 -22 7 -10 -3 -21 -1 -24 4
-3 4 15 8 39 9 41 1 44 -1 28 -15z m224 2 c-26 -4 -41 -23 -18 -23 6 0 10 -4
10 -10 0 -5 -7 -10 -15 -10 -9 0 -12 -6 -9 -15 4 -8 17 -15 30 -15 13 0 24 -4
24 -10 0 -5 -16 -10 -35 -10 l-35 0 0 50 0 50 38 -1 c30 -2 32 -3 10 -6z m72
-16 c0 -5 9 -2 21 8 20 19 20 19 9 -9 -8 -23 -7 -34 5 -52 8 -13 11 -24 6 -24
-6 0 -15 8 -20 18 -10 16 -12 16 -26 -2 -8 -11 -18 -17 -22 -13 -3 4 2 16 12
27 16 18 17 21 1 44 -14 22 -14 25 -1 20 8 -4 15 -11 15 -17z m114 17 c9 -3
16 -11 16 -16 0 -6 -6 -6 -15 2 -19 16 -55 3 -55 -19 0 -26 25 -44 50 -36 11
3 20 2 20 -3 0 -10 -23 -22 -41 -22 -12 0 -49 37 -49 50 0 13 37 50 49 50 5 0
16 -3 25 -6z m79 -1 c-37 -5 -40 -10 -15 -29 16 -13 16 -13 0 -14 -33 0 -20
-30 12 -30 17 0 30 -5 30 -11 0 -6 -15 -9 -35 -7 -20 2 -35 6 -35 11 0 4 0 25
0 47 0 40 0 40 38 38 36 -1 36 -1 5 -5z m57 -45 c0 -23 4 -28 25 -28 14 0 25
-4 25 -10 0 -5 -16 -10 -35 -10 l-35 0 0 53 c0 37 3 48 10 37 5 -8 10 -27 10
-42z m113 45 c-37 -5 -40 -10 -15 -29 16 -13 16 -13 0 -14 -33 0 -20 -30 12
-30 17 0 30 -5 30 -11 0 -6 -15 -9 -35 -7 -20 2 -35 6 -35 11 0 4 0 25 0 47 0
40 0 40 38 38 36 -1 36 -1 5 -5z m91 -43 c3 0 6 12 8 28 3 17 6 8 8 -26 3 -28
3 -52 0 -52 -3 0 -15 15 -25 33 l-20 32 -3 -32 c-5 -54 -23 -37 -21 18 l3 52
22 -27 c13 -14 25 -26 28 -26z m100 44 c9 -3 16 -11 16 -16 0 -6 -6 -6 -15 2
-19 16 -55 3 -55 -19 0 -26 25 -44 50 -36 11 3 20 2 20 -4 0 -16 -38 -23 -60
-11 -34 18 -22 90 16 90 7 0 19 -3 28 -6z m46 -45 c0 -27 -3 -48 -8 -45 -7 4
-4 96 4 96 2 0 4 -23 4 -51z m89 32 c6 -10 7 -21 4 -25 -3 -3 -2 -6 4 -6 5 0
15 -11 21 -25 15 -33 -3 -71 -55 -114 -62 -51 -143 -70 -343 -80 -181 -9 -259
-26 -337 -71 -42 -25 -42 -7 0 31 75 69 150 90 377 108 87 7 139 16 170 30 44
19 98 66 92 79 -3 10 41 92 50 92 4 0 12 -8 17 -19z m-1149 -11 c8 -5 11 -10
5 -10 -5 0 -17 5 -25 10 -8 5 -10 10 -5 10 6 0 17 -5 25 -10z m239 -15 c6 3 9
9 7 13 -2 4 7 8 20 8 13 1 24 -2 24 -7 0 -5 -7 -9 -16 -9 -14 0 -15 -2 -3 -17
12 -16 12 -17 -1 -6 -10 8 -21 9 -30 3 -8 -6 -10 -10 -5 -11 6 0 -1 -4 -15 -8
-14 -5 -34 -3 -45 2 -20 10 -20 10 -1 -12 11 -11 29 -22 40 -22 20 -2 20 -2
-1 -6 -13 -2 -23 -8 -23 -12 0 -11 26 -32 31 -26 3 2 3 -12 0 -33 l-6 -37 -3
33 c-3 30 -6 32 -36 30 -39 -2 -46 -31 -13 -59 25 -21 20 -23 -18 -9 -23 9
-27 15 -23 41 3 16 0 33 -5 36 -6 3 -8 2 -5 -3 3 -5 -1 -16 -10 -24 -14 -13
-15 -13 -10 0 3 8 -1 21 -8 28 -8 7 -14 8 -14 2 0 -5 -7 -10 -15 -10 -8 0 -20
-9 -27 -19 -6 -10 -18 -17 -25 -14 -7 3 -13 -1 -13 -8 0 -7 -3 -9 -6 -6 -9 9
16 38 26 32 16 -10 22 16 8 32 -12 15 -11 15 9 3 41 -26 64 24 31 67 -7 8 -3
10 11 6 11 -3 27 3 38 14 18 19 18 19 45 0 33 -25 63 -16 55 16 -6 21 -5 21 8
3 7 -10 19 -15 24 -11z m-209 -40 c-7 -9 -15 -13 -17 -11 -7 7 7 26 19 26 6 0
6 -6 -2 -15z m249 -107 c13 -21 13 -22 -2 -9 -16 12 -22 8 -18 -12 3 -17 -17
4 -22 23 -7 28 24 26 42 -2z m-219 -19 c0 -5 -4 -9 -10 -9 -5 0 -10 7 -10 16
0 8 5 12 10 9 6 -3 10 -10 10 -16z m967 -55 c-47 -26 -157 -44 -267 -44 -96 0
-165 -7 -245 -25 -23 -5 -26 -4 -15 4 30 21 159 42 320 50 91 5 176 14 190 19
38 16 49 13 17 -4z"/>
<path d="M1300 795 c0 -8 5 -15 10 -15 6 0 10 7 10 15 0 8 -4 15 -10 15 -5 0
-10 -7 -10 -15z"/>
<path d="M1287 763 c-15 -14 -6 -23 23 -23 20 0 30 5 30 15 0 15 -40 21 -53 8z"/>
<path d="M297 783 c-11 -10 -8 -43 3 -43 5 0 7 7 3 16 -3 9 0 20 8 25 8 5 9 9
3 9 -6 0 -14 -3 -17 -7z"/>
<path d="M265 759 c-4 -6 -5 -12 -2 -15 2 -3 7 2 10 11 7 17 1 20 -8 4z"/>
<path d="M300 715 c-6 -7 -2 -11 11 -12 10 -1 19 3 19 9 0 5 7 7 16 4 8 -3 12
-2 9 3 -7 13 -44 10 -55 -4z"/>
</g>
</svg>
